Fly_normalized_Motion_pl13
version=1
nRows=14
nColumns=43
inDegrees=yes
endheader
time		pelvis_tilt		pelvis_list		pelvis_rotation		pelvis_tx		pelvis_ty		pelvis_tz		hip_flexion_r		hip_adduction_r		hip_rotation_r		knee_angle_r		ankle_angle_r		subtalar_angle_r		mtp_angle_r		hip_flexion_l		hip_adduction_l		hip_rotation_l		knee_angle_l		ankle_angle_l		subtalar_angle_l		mtp_angle_l		lumbar_extension		lumbar_bending		lumbar_rotation		neck_flexion		neck_lateral_bending		neck_rotation		arm_flex_r		arm_add_r		arm_rot_r		elbow_flex_r		pro_sup_r		wrist_flex_r		wrist_dev_r		hand_finger_flex_r		arm_flex_l		arm_add_l		arm_rot_l		elbow_flex_l		pro_sup_l		wrist_flex_l		wrist_dev_l		hand_finger_flex_l		
1.458333		3.256604		6.764600		85.550223		0.041430		1.507576		0.943672		41.971995		0.881361		-2.218077		-60.770915		-17.287021		0.686545		5.204111		43.262217		-9.150335		1.265054		-51.883714		-23.350991		1.628890		10.989223		-52.910934		-0.145663		7.539136		6.945900		1.774896		-5.132364		-14.090865		-23.832160		-9.201773		49.646207		110.855792		0.024997		-16.969492		-10.191195		-16.889044		-22.311448		8.305161		32.891176		108.582163		-17.780410		-7.250529		-12.990116		
1.462551		3.506821		7.145913		85.596617		0.041042		1.495926		0.932397		40.496355		0.868374		-2.692595		-58.579248		-17.322319		0.884740		4.771430		41.960166		-9.456605		0.963509		-50.600447		-23.514020		1.798681		10.931435		-52.339772		0.206008		7.574133		5.384109		1.493328		-5.112129		-16.941633		-23.293971		-9.897284		49.782483		110.568678		-0.199633		-17.113007		-10.467854		-19.817240		-21.655306		7.381806		32.899959		107.461665		-18.079186		-7.580570		-13.517798		
1.466768		3.504762		7.229908		85.592191		0.040658		1.483212		0.921018		39.495259		0.658215		-3.087199		-56.586027		-17.555082		1.008568		4.524727		41.003785		-9.607738		0.444863		-49.357288		-23.891026		1.961981		10.831377		-51.334703		0.347545		7.497781		3.488714		1.259174		-4.964230		-19.858296		-22.799395		-10.385635		49.928235		110.340788		-0.424724		-17.402372		-10.640545		-22.753754		-21.182710		7.007093		32.967476		106.972952		-18.459750		-7.837945		-13.817091		
1.470985		3.589560		7.451297		85.590418		0.040504		1.470787		0.909473		38.232138		0.589034		-3.447051		-54.453536		-17.650761		1.178969		4.143776		39.850412		-9.849109		-0.058113		-48.069350		-24.173211		2.135689		10.712215		-50.521374		0.527967		7.458055		1.779618		0.985603		-4.896073		-22.701651		-22.102446		-11.141390		50.063972		110.059468		-0.709666		-17.588228		-10.871429		-25.672294		-20.596566		6.288058		33.104063		106.152712		-18.859154		-8.086513		-14.221445		
1.475202		3.729095		7.945177		85.531929		0.040408		1.458873		0.897743		36.618617		0.550771		-3.908404		-52.262479		-17.720563		1.366462		3.259233		38.289645		-10.186892		-0.697804		-46.641944		-24.415599		2.434520		10.525051		-50.029734		0.704794		7.462923		0.182724		0.719859		-4.809457		-25.525020		-21.393468		-12.026208		50.370452		109.943938		-0.774684		-17.648199		-11.057947		-28.586662		-20.021567		5.560124		33.408234		105.238174		-18.892141		-8.388184		-14.834891		
1.479419		3.702130		7.910866		85.488009		0.040269		1.445529		0.885985		35.721729		0.405426		-4.308784		-50.256319		-18.004168		1.521750		2.970850		37.373655		-10.347312		-1.283297		-45.287993		-24.851368		2.550294		10.401913		-48.877590		0.790871		7.373746		-1.768325		0.472453		-4.632583		-28.312809		-20.606018		-12.812502		50.487489		109.656707		-1.113584		-17.908546		-11.237845		-31.459380		-19.463035		5.085316		33.638804		104.912306		-19.318243		-8.522472		-15.157655		
1.483636		3.778816		8.131707		85.420986		0.040125		1.432729		0.874079		34.438063		0.366292		-4.734147		-48.083703		-18.288387		1.778907		2.473715		36.105307		-10.613289		-1.949694		-43.849486		-25.165048		2.711237		10.264908		-48.063613		0.934105		7.363905		-3.506801		0.252539		-4.502891		-31.047147		-19.714414		-13.868909		50.695014		109.416139		-1.299536		-18.002544		-11.315721		-34.296032		-18.786198		4.233714		34.051827		104.535745		-19.561687		-8.567118		-15.579792		
1.487854		3.855485		8.449888		85.357566		0.039928		1.420067		0.862011		33.009864		0.309110		-5.222687		-45.855075		-18.675785		2.102022		1.944368		34.685201		-10.858124		-2.670732		-42.340361		-25.446436		2.881005		10.125424		-47.356823		1.068300		7.334959		-5.264439		0.059251		-4.287975		-33.703740		-18.754270		-15.017581		50.913160		109.243608		-1.398303		-18.061633		-11.313143		-37.072424		-18.070586		3.322778		34.478495		104.409418		-19.813632		-8.617332		-16.035731		
1.492071		3.916430		8.973470		85.279339		0.039753		1.407686		0.849810		31.352073		0.202929		-5.829637		-43.635771		-19.103238		2.474335		1.236059		32.946476		-11.092639		-3.564961		-40.677529		-25.664031		3.085125		9.967736		-46.890306		1.153769		7.263550		-6.921596		-0.090905		-4.002887		-36.334171		-17.820815		-16.163024		51.298809		109.346889		-1.263879		-18.115575		-11.176948		-39.829938		-17.368822		2.373864		34.992630		104.777148		-19.936723		-8.728430		-16.540395		
1.496288		3.850919		8.976243		85.278621		0.039386		1.394034		0.837596		30.346599		0.016731		-6.350357		-41.516887		-19.636993		2.733422		0.871518		31.875356		-11.147303		-4.349886		-39.099246		-25.919423		3.169057		9.859133		-45.801910		1.232957		7.110700		-8.827415		-0.257451		-3.695029		-38.894673		-16.907862		-17.067205		51.468715		109.197668		-1.493703		-18.329842		-11.268615		-42.502758		-16.754266		1.845002		35.402372		104.874256		-20.314281		-8.961727		-16.851437		
1.500505		3.813760		9.130777		85.237914		0.039277		1.380637		0.825285		29.136740		-0.120083		-6.889140		-39.355542		-20.118365		3.066455		0.521923		30.568166		-11.251539		-5.259992		-37.414885		-26.103293		3.261021		9.759781		-44.907829		1.250054		6.991791		-10.620966		-0.343405		-3.435528		-41.323492		-15.898345		-18.048775		51.669338		109.080421		-1.626499		-18.418754		-11.312420		-45.127906		-16.096540		1.145151		35.877622		104.919520		-20.742630		-9.175730		-17.105019		
1.504722		3.762561		9.553583		85.171058		0.039344		1.367672		0.812917		27.589967		-0.259595		-7.426838		-37.131255		-20.477460		3.393421		0.025435		28.877243		-11.349129		-6.347607		-35.588429		-26.161885		3.448204		9.659086		-44.349457		1.184092		6.861275		-12.192672		-0.376231		-3.216482		-43.664139		-14.887960		-19.036192		51.989174		109.216563		-1.544136		-18.412762		-11.260418		-47.685668		-15.458151		0.330195		36.437824		105.237896		-20.971788		-9.417985		-17.291717		
1.508939		3.684632		10.077374		85.076802		0.039562		1.354748		0.800534		25.917961		-0.397151		-7.943008		-34.883593		-20.740250		3.735861		-0.637238		27.015665		-11.429486		-7.604802		-33.664464		-26.097056		3.782157		9.538886		-43.921971		1.034711		6.743358		-13.684292		-0.326497		-3.068631		-45.893774		-13.864871		-19.997810		52.326429		109.615953		-1.428448		-18.400491		-11.270099		-50.149724		-14.809178		-0.656275		37.015649		105.886834		-21.049296		-9.681283		-17.397481		
1.513157		3.584685		9.891862		85.146138		0.039599		1.340063		0.788452		25.188875		-0.534861		-8.509279		-32.893059		-21.092465		3.881664		-0.833928		26.153022		-11.402279		-8.493539		-31.947615		-26.016090		3.884912		9.473120		-42.718476		1.029977		6.610553		-15.327474		-0.274739		-2.936898		-48.139692		-12.966489		-20.523869		52.553256		109.544593		-1.622468		-18.599145		-11.392118		-52.493680		-14.374490		-0.988304		37.504405		106.021770		-21.339971		-10.081215		-17.507211		
